<svg xmlns="http://www.w3.org/2000/svg" width="256" height="256" viewBox="0 0 100 100">
    <rect width="100" height="100" rx="20" fill="#00539c"></rect>
    <path fill="#fff"
          d="M24.17 61.36L17.77 52.13L10.23 62.67Q9.82 62.75 9.41 62.75L9.41 62.75Q8.59 62.75 8.10 62.36Q7.61 61.97 7.61 61.27L7.61 61.27Q7.61 60.74 7.87 60.29Q8.14 59.84 8.55 59.27L8.55 59.27L15.76 49.84L7.77 38.93Q7.97 38.23 8.45 37.76Q8.92 37.29 9.74 37.29L9.74 37.29Q10.39 37.29 10.84 37.68Q11.30 38.07 11.79 38.77L11.79 38.77L17.86 47.46L25.11 37.41Q25.32 37.37 25.52 37.35Q25.73 37.33 25.97 37.33L25.97 37.33Q26.83 37.33 27.27 37.74Q27.70 38.15 27.70 38.77L27.70 38.77Q27.70 39.22 27.47 39.65Q27.24 40.08 26.92 40.53L26.92 40.53Q25.19 42.83 23.43 45.12Q21.67 47.42 19.82 49.75L19.82 49.75L28.06 61.15Q27.86 61.85 27.41 62.30Q26.96 62.75 26.18 62.75L26.18 62.75Q25.52 62.75 25.09 62.42Q24.66 62.09 24.17 61.36L24.17 61.36ZM40.53 60.21L40.53 60.21Q43.28 60.21 44.69 58.96Q46.10 57.71 46.10 55.74L46.10 55.74Q46.10 54.02 45.02 52.95Q43.93 51.89 41.59 51.19L41.59 51.19L38.03 50.12Q35.40 49.34 33.91 47.83Q32.41 46.31 32.41 43.73L32.41 43.73Q32.41 42.17 33.01 40.92Q33.60 39.67 34.71 38.81Q35.81 37.95 37.35 37.47Q38.89 37.00 40.82 37.00L40.82 37.00Q42.46 37.00 43.87 37.27Q45.28 37.54 46.33 38.01Q47.38 38.48 47.95 39.05Q48.52 39.63 48.52 40.24L48.52 40.24Q48.52 40.82 48.24 41.23Q47.95 41.64 47.50 41.88L47.50 41.88Q46.43 41.06 44.73 40.45Q43.03 39.83 40.94 39.83L40.94 39.83Q38.52 39.83 37.15 40.86Q35.77 41.88 35.77 43.73L35.77 43.73Q35.77 45.16 36.76 46.06Q37.74 46.97 40.04 47.62L40.04 47.62L42.54 48.36Q45.78 49.30 47.64 51.00Q49.51 52.71 49.51 55.74L49.51 55.74Q49.51 58.98 47.17 60.99Q44.83 63.00 40.53 63.00L40.53 63.00Q38.64 63.00 37.11 62.67Q35.57 62.34 34.48 61.81Q33.39 61.27 32.80 60.64Q32.21 60.00 32.21 59.39L32.21 59.39Q32.21 58.69 32.64 58.22Q33.07 57.75 33.64 57.54L33.64 57.54Q34.09 57.99 34.75 58.47Q35.40 58.94 36.27 59.33Q37.13 59.72 38.19 59.96Q39.26 60.21 40.53 60.21ZM56.89 62.46L56.89 62.46Q56.11 62.46 55.60 61.97Q55.08 61.48 55.08 60.66L55.08 60.66L55.08 37.62Q55.29 37.54 55.72 37.43Q56.15 37.33 56.64 37.33L56.64 37.33Q58.45 37.33 58.45 38.85L58.45 38.85L58.45 59.59L70.21 59.59Q70.66 60.05 70.66 60.95L70.66 60.95Q70.66 61.64 70.30 62.05Q69.93 62.46 69.31 62.46L69.31 62.46L56.89 62.46ZM91.12 40.36L84.36 40.36L84.36 62.38Q84.15 62.46 83.72 62.57Q83.29 62.67 82.84 62.67L82.84 62.67Q81.04 62.67 81.04 61.15L81.04 61.15L81.04 40.36L73.37 40.36Q73.25 40.16 73.12 39.81Q73.00 39.46 73.00 39.01L73.00 39.01Q73.00 38.31 73.33 37.93Q73.66 37.54 74.27 37.54L74.27 37.54L92.03 37.54Q92.15 37.74 92.27 38.09Q92.39 38.44 92.39 38.85L92.39 38.85Q92.39 39.55 92.07 39.95Q91.74 40.36 91.12 40.36L91.12 40.36Z"></path>
</svg>